[CENTER]
[IMG]http://s17.postimage.org/4dy0lq9sf/DBD_Colorpack_Preview.png[/IMG]
[B][SIZE=5][COLOR="blue"]Talaash[/COLOR][COLOR="red"] *2012*[/COLOR]
[COLOR="green"]"DVDRip - 1CD - XviD - AC3 - E-Sub - [BDT] "[/COLOR]
[COLOR="Orange"]..: eXclusive Release ::..[/COLOR]
[COLOR="#008000"][COLOR="purple"]..:: deep1007 ::..[/COLOR][/COLOR][/SIZE][/B]
[IMG]http://images.desimartini.com/user_uploads/moviereview/500_500-pd/7876579_1347368626_94718.jpeg[/IMG]

[B][COLOR="brown"][SIZE=6]Media Info[/SIZE][/COLOR][/B]
[Code]
General
Complete name                            : Talaash (2012).avi
Format                                   : AVI
Format/Info                              : Audio Video Interleave
File size                                : 698 MiB
Duration                                 : 2h 20mn
Overall bit rate                         : 694 Kbps

Video
ID                                       : 0
Format                                   : MPEG-4 Visual
Format profile                           : Advanced Simple@L5
Format settings, BVOP                    : 3
Format settings, QPel                    : No
Format settings, GMC                     : No warppoints
Format settings, Matrix                  : Default (H.263)
Codec ID                                 : XVID
Codec ID/Hint                            : XviD
Duration                                 : 2h 20mn
Bit rate                                 : 558 Kbps
Width                                    : 688 pixels
Height                                   : 288 pixels
Display aspect ratio                     : 2.40:1
Frame rate                               : 23.976 fps
Color space                              : YUV
Chroma subsampling                       : 4:2:0
Bit depth                                : 8 bits
Scan type                                : Progressive
Compression mode                         : Lossy
Bits/(Pixel*Frame)                       : 0.118
Stream size                              : 561 MiB (80%)
Writing library                          : XviD 1.2.1 (UTC 2008-12-04)

Audio
ID                                       : 1
Format                                   : AC-3
Format/Info                              : Audio Coding 3
Mode extension                           : CM (complete main)
Format settings, Endianness              : Big
Codec ID                                 : 2000
Duration                                 : 2h 20mn
Bit rate mode                            : Constant
Bit rate                                 : 128 Kbps
Channel(s)                               : 6 channels
Channel positions                        : Front: L C R, Side: L R, LFE
Sampling rate                            : 48.0 KHz
Bit depth                                : 16 bits
Compression mode                         : Lossy
Stream size                              : 129 MiB (18%)
Alignment                                : Aligned on interleaves
Interleave, duration                     : 64 ms (1.53 video frames)
Interleave, preload duration             : 192 ms

Text
ID                                       : 2
Duration                                 : 2h 20mn
Bit rate                                 : 110 bps
Stream size                              : 113 KiB (0%)
[/CODE]

[B][COLOR="brown"][SIZE=6]Screenshots[/SIZE][/COLOR][/B]

[IMG]http://s18.postimage.org/muqtar5u1/vlcsnap_2013_02_19_21h29m02s119.png[/IMG]
[IMG]http://s18.postimage.org/61vjyl3rd/vlcsnap_2013_02_19_21h25m58s78.png[/IMG]
[IMG]http://s18.postimage.org/adk5nlao9/vlcsnap_2013_02_19_21h26m31s155.png[/IMG]
[IMG]http://s18.postimage.org/g6u7o5mbt/vlcsnap_2013_02_19_21h33m06s254.png[/IMG]
[IMG]http://s18.postimage.org/vr1leowg9/vlcsnap_2013_02_19_21h30m52s187.png[/IMG]
[IMG]http://s18.postimage.org/5g6l2h8p5/vlcsnap_2013_02_19_21h26m50s90.png[/IMG]


==================================
[B]All Credits Goes To : -=: deep1007 :=-[/B]
==================================
ME ON
[B][COLOR="ORANGE"][SIZE=4]DON'T FORGET TO SAY THANKS TO THE [SIZE=5][COLOR="#FF0000"]UPLODER[/COLOR][/SIZE], IF YOU LIKE MY POST!
IF YOU DON'T REPLY, THE POST WILL DIE[/SIZE]
[/COLOR][/B]
[/CENTER]